<svg width="350" height="198" viewBox="0 0 350 198" fill="none" xmlns="http://www.w3.org/2000/svg">
<line x1="29.2545" y1="174.195" x2="349.652" y2="174.195" stroke="#387978"/>
<line x1="54.0932" y1="58.7458" x2="54.0932" y2="102.881" stroke="#367777"/>
<path d="M42.5593 20.9152L85.1186 42.983L42.5593 65.0508L0 42.983L42.5593 20.9152Z" fill="#82D7D0"/>
<path d="M80.3898 20.9152L129.254 46.1356L80.3898 71.3559L31.5254 46.1356L80.3898 20.9152Z" fill="#367777" stroke="white" stroke-width="0.1"/>
<circle cx="55.1695" cy="104.458" r="4.72881" fill="#367777"/>
<path d="M55.1695 102.881L59.8983 121.797H50.4407L55.1695 102.881Z" fill="#367777"/>
<path d="M104.034 71.3559C104.034 80.0614 92.2118 87.1186 80.3898 87.1186C68.5678 87.1186 56.7458 79.2373 56.7458 71.356C56.7458 63.4746 67.3314 55.5932 80.3899 55.5932C93.4483 55.5932 104.034 62.6504 104.034 71.3559Z" fill="#367777"/>
<rect x="56.7458" y="58.7457" width="47.2881" height="12.6102" fill="#367777"/>
<path d="M129.254 46.1356L80.3899 71.3559L56.7212 59.1398L80.3899 46.1356" stroke="white"/>
<path fill-rule="evenodd" clip-rule="evenodd" d="M59.8201 13.4394C75.8718 3.80451 94.4067 -0.830302 113.081 0.122136C131.754 1.07457 149.727 7.57137 164.725 18.7896C178.977 29.4494 189.935 43.917 196.369 60.5169H192.065C185.834 45.2196 175.563 31.8911 162.33 21.9928C147.966 11.2492 130.756 5.02886 112.877 4.11695C94.9976 3.20504 77.2502 7.64245 61.8787 16.8691C46.507 26.0957 34.2011 39.6977 26.5186 55.9563C18.836 72.2149 16.1223 90.399 18.7215 108.209C21.3207 126.018 29.1156 142.652 41.119 156.007C53.1224 169.361 68.7949 178.837 86.154 183.238C98.1957 186.29 110.674 186.805 122.819 184.82H139.076C121.718 190.83 102.986 191.631 85.1711 187.115C67.0414 182.519 50.6761 172.623 38.1441 158.681C25.6122 144.738 17.4762 127.375 14.7634 108.786C12.0507 90.1982 14.8827 71.2186 22.902 54.2474C30.9214 37.276 43.7684 23.0743 59.8201 13.4394Z" fill="#A8E0E9"/>
<path d="M152.613 77.9375V95H149.191V77.9375H152.613ZM155.226 85.4727V88.1914H151.23V85.4727H155.226ZM166.265 85.1445V87.9922C166.265 89.1953 166.117 90.25 165.82 91.1562C165.531 92.0547 165.117 92.8086 164.577 93.418C164.046 94.0195 163.402 94.4727 162.644 94.7773C161.894 95.082 161.058 95.2344 160.136 95.2344C159.23 95.2344 158.398 95.082 157.64 94.7773C156.89 94.4727 156.242 94.0195 155.695 93.418C155.148 92.8086 154.726 92.0547 154.429 91.1562C154.14 90.25 153.995 89.1953 153.995 87.9922V85.1445C153.995 83.9102 154.14 82.832 154.429 81.9102C154.718 80.9805 155.136 80.207 155.683 79.5898C156.23 78.9648 156.878 78.4961 157.628 78.1836C158.378 77.8633 159.206 77.7031 160.113 77.7031C161.035 77.7031 161.87 77.8633 162.62 78.1836C163.37 78.4961 164.019 78.9648 164.566 79.5898C165.113 80.207 165.531 80.9805 165.82 81.9102C166.117 82.832 166.265 83.9102 166.265 85.1445ZM162.855 87.9922V85.1211C162.855 84.3086 162.792 83.6172 162.667 83.0469C162.55 82.4688 162.374 81.9961 162.14 81.6289C161.913 81.2617 161.628 80.9922 161.285 80.8203C160.949 80.6484 160.558 80.5625 160.113 80.5625C159.675 80.5625 159.285 80.6484 158.941 80.8203C158.605 80.9922 158.32 81.2617 158.085 81.6289C157.859 81.9961 157.687 82.4688 157.57 83.0469C157.46 83.6172 157.406 84.3086 157.406 85.1211V87.9922C157.406 88.7734 157.464 89.4414 157.581 89.9961C157.699 90.5508 157.874 91.0039 158.109 91.3555C158.343 91.707 158.628 91.9688 158.964 92.1406C159.308 92.3047 159.699 92.3867 160.136 92.3867C160.581 92.3867 160.972 92.3047 161.308 92.1406C161.652 91.9688 161.937 91.707 162.163 91.3555C162.39 91.0039 162.562 90.5508 162.679 89.9961C162.796 89.4414 162.855 88.7734 162.855 87.9922ZM172.98 88.0391L167.566 77.9375H171.82L174.609 84.8047H177.245L176.753 88.0391H172.98ZM174.562 87.4648L171.632 95H167.378L171.796 85.3906L174.562 87.4648ZM179.425 77.9375V95H176.015V77.9375H179.425ZM187.734 77.9375L182.425 88.0391H178.687L178.195 84.8047H180.796L183.515 77.9375H187.734ZM183.679 95L180.843 87.4648L183.609 85.3906L187.933 95H183.679ZM198.984 84.8516V87.6875H191.988V84.8516H198.984ZM192.96 77.9375V95H189.527V77.9375H192.96ZM201.468 77.9375V95H198.07V77.9375H201.468ZM216.257 85.1445V87.9922C216.257 89.1953 216.109 90.25 215.812 91.1562C215.523 92.0547 215.109 92.8086 214.57 93.418C214.038 94.0195 213.394 94.4727 212.636 94.7773C211.886 95.082 211.054 95.2344 210.14 95.2344C209.226 95.2344 208.39 95.082 207.632 94.7773C206.882 94.4727 206.234 94.0195 205.687 93.418C205.148 92.8086 204.73 92.0547 204.433 91.1562C204.136 90.25 203.988 89.1953 203.988 87.9922V85.1445C203.988 83.9102 204.132 82.832 204.421 81.9102C204.71 80.9805 205.128 80.207 205.675 79.5898C206.222 78.9648 206.87 78.4961 207.62 78.1836C208.37 77.8633 209.202 77.7031 210.117 77.7031C211.031 77.7031 211.863 77.8633 212.613 78.1836C213.363 78.4961 214.011 78.9648 214.558 79.5898C215.105 80.207 215.523 80.9805 215.812 81.9102C216.109 82.832 216.257 83.9102 216.257 85.1445ZM212.847 87.9922V85.1211C212.847 84.3086 212.788 83.6172 212.671 83.0469C212.554 82.4688 212.378 81.9961 212.144 81.6289C211.91 81.2617 211.624 80.9922 211.288 80.8203C210.952 80.6484 210.562 80.5625 210.117 80.5625C209.671 80.5625 209.277 80.6484 208.933 80.8203C208.597 80.9922 208.312 81.2617 208.077 81.6289C207.851 81.9961 207.679 82.4688 207.562 83.0469C207.452 83.6172 207.398 84.3086 207.398 85.1211V87.9922C207.398 88.7734 207.456 89.4414 207.574 89.9961C207.691 90.5508 207.867 91.0039 208.101 91.3555C208.335 91.707 208.62 91.9688 208.956 92.1406C209.3 92.3047 209.695 92.3867 210.14 92.3867C210.577 92.3867 210.964 92.3047 211.3 92.1406C211.644 91.9688 211.929 91.707 212.156 91.3555C212.382 91.0039 212.554 90.5508 212.671 89.9961C212.788 89.4414 212.847 88.7734 212.847 87.9922ZM224.495 86.3164V89.0469H218.788V86.3164H224.495ZM231.843 88.7773L235.124 77.9375H238.804L234.117 91.6602C233.929 92.1367 233.722 92.5938 233.495 93.0312C233.277 93.4609 233.015 93.8438 232.71 94.1797C232.406 94.5156 232.038 94.7773 231.609 94.9648C231.179 95.1523 230.667 95.2461 230.074 95.2461C229.933 95.2461 229.753 95.2422 229.535 95.2344C229.324 95.2266 229.152 95.2188 229.019 95.2109L228.96 92.3633C229.038 92.3789 229.167 92.3906 229.347 92.3984C229.527 92.4062 229.652 92.4102 229.722 92.4102C230.089 92.4102 230.367 92.3477 230.554 92.2227C230.749 92.0898 230.898 91.9023 230.999 91.6602C231.109 91.418 231.202 91.1328 231.281 90.8047L231.843 88.7773ZM230.249 77.9375L233.027 86.1758L234.058 90.2422L231.515 90.2773L226.581 77.9375H230.249ZM246.456 88.9883H242.964V86.1406H246.456C246.941 86.1406 247.335 86.0312 247.64 85.8125C247.952 85.5938 248.179 85.293 248.32 84.9102C248.46 84.5195 248.531 84.082 248.531 83.5977C248.531 83.1055 248.456 82.6484 248.308 82.2266C248.167 81.7969 247.945 81.4492 247.64 81.1836C247.343 80.918 246.949 80.7852 246.456 80.7852H244.066V95H240.644V77.9375H246.456C247.605 77.9375 248.593 78.1797 249.421 78.6641C250.249 79.1484 250.882 79.8164 251.32 80.668C251.765 81.5117 251.988 82.4805 251.988 83.5742C251.988 84.6758 251.765 85.6328 251.32 86.4453C250.882 87.25 250.249 87.875 249.421 88.3203C248.593 88.7656 247.605 88.9883 246.456 88.9883ZM258.374 80.9844L254.706 95H251.085L256.417 77.9375H258.679L258.374 80.9844ZM261.269 95L257.577 80.9844L257.238 77.9375H259.535L264.913 95H261.269ZM261.398 88.6367V91.4844H253.699V88.6367H261.398ZM276.21 77.9375V80.7852H269.214V77.9375H276.21ZM278.695 77.9375V95H275.285V77.9375H278.695ZM268.792 77.9375H272.191L271.851 86.5391C271.804 87.8203 271.702 88.9336 271.546 89.8789C271.39 90.8242 271.179 91.625 270.913 92.2812C270.656 92.9297 270.331 93.457 269.941 93.8633C269.55 94.2617 269.097 94.5508 268.581 94.7305C268.066 94.9102 267.484 95 266.835 95H266.027V92.1641L266.413 92.1172C266.718 92.0781 266.988 91.9805 267.222 91.8242C267.456 91.6602 267.656 91.418 267.82 91.0977C267.984 90.7695 268.117 90.3516 268.218 89.8438C268.327 89.3281 268.41 88.7031 268.464 87.9688C268.527 87.2344 268.57 86.3789 268.593 85.4023L268.792 77.9375ZM283.792 84.0781H287.038C288.179 84.0781 289.167 84.3008 290.003 84.7461C290.839 85.1914 291.484 85.8203 291.937 86.6328C292.398 87.4453 292.628 88.3945 292.628 89.4805C292.628 90.3008 292.495 91.0469 292.23 91.7188C291.972 92.3906 291.597 92.9727 291.105 93.4648C290.62 93.957 290.035 94.3359 289.347 94.6016C288.667 94.8672 287.898 95 287.038 95H281.484V77.9375H284.917V92.1641H287.038C287.515 92.1641 287.913 92.0391 288.234 91.7891C288.554 91.5391 288.796 91.2109 288.96 90.8047C289.124 90.3984 289.206 89.9492 289.206 89.457C289.206 88.9805 289.124 88.5508 288.96 88.168C288.796 87.7852 288.554 87.4844 288.234 87.2656C287.913 87.0391 287.515 86.9258 287.038 86.9258H283.792V84.0781ZM302.824 89.3164H306.234C306.187 90.5977 305.929 91.6797 305.46 92.5625C304.992 93.4375 304.324 94.1016 303.456 94.5547C302.597 95.0078 301.558 95.2344 300.339 95.2344C299.394 95.2344 298.554 95.0781 297.82 94.7656C297.085 94.4453 296.46 93.9766 295.945 93.3594C295.429 92.7422 295.038 91.9805 294.773 91.0742C294.515 90.1602 294.386 89.1094 294.386 87.9219V85.0273C294.386 83.8398 294.523 82.7891 294.796 81.875C295.077 80.9609 295.476 80.1953 295.992 79.5781C296.515 78.9531 297.144 78.4844 297.878 78.1719C298.62 77.8516 299.456 77.6914 300.386 77.6914C301.628 77.6914 302.667 77.9258 303.503 78.3945C304.339 78.8633 304.984 79.5469 305.437 80.4453C305.898 81.3359 306.175 82.4258 306.269 83.7148H302.847C302.824 82.9023 302.73 82.2656 302.566 81.8047C302.41 81.3359 302.16 81.0078 301.816 80.8203C301.472 80.625 300.995 80.5273 300.386 80.5273C299.933 80.5273 299.542 80.6094 299.214 80.7734C298.886 80.9297 298.617 81.1836 298.406 81.5352C298.195 81.8867 298.038 82.3477 297.937 82.918C297.843 83.4883 297.796 84.1836 297.796 85.0039V87.9219C297.796 88.7266 297.839 89.4141 297.925 89.9844C298.011 90.5469 298.148 91.0078 298.335 91.3672C298.523 91.7266 298.777 91.9883 299.097 92.1523C299.425 92.3164 299.839 92.3984 300.339 92.3984C300.917 92.3984 301.382 92.3125 301.734 92.1406C302.093 91.9688 302.359 91.6602 302.531 91.2148C302.702 90.7695 302.8 90.1367 302.824 89.3164ZM311.835 77.9375V95H308.402V77.9375H311.835ZM320.144 77.9375L314.835 88.0039H311.05L310.581 84.7578H312.984L315.995 77.9375H320.144ZM316.546 95L313.054 87.4062L315.41 84.8281L320.613 95H316.546ZM325.136 88.7305L330.468 77.9375H333.726V95H330.41V84.3359L325.124 95H321.808V77.9375H325.136V88.7305ZM339.691 88.7305L345.023 77.9375H348.281V95H344.964V84.3359L339.679 95H336.363V77.9375H339.691V88.7305ZM343.98 73.4375H346.394C346.394 74.125 346.226 74.7305 345.89 75.2539C345.562 75.7695 345.093 76.1758 344.484 76.4727C343.882 76.7695 343.167 76.918 342.339 76.918C341.089 76.918 340.101 76.5938 339.374 75.9453C338.648 75.2969 338.285 74.4609 338.285 73.4375H340.675C340.675 73.8438 340.8 74.2031 341.05 74.5156C341.3 74.8281 341.73 74.9844 342.339 74.9844C342.941 74.9844 343.363 74.8281 343.605 74.5156C343.855 74.2031 343.98 73.8438 343.98 73.4375ZM87.058 110.25V133H82.5111V110.25H87.058ZM92.7142 110.25V114.047H76.9642V110.25H92.7142ZM108.417 129.219V133H98.5267V129.219H108.417ZM99.9486 110.25V133H95.3705V110.25H99.9486ZM107.089 119.469V123.141H98.5267V119.469H107.089ZM108.386 110.25V114.047H98.5267V110.25H108.386ZM115.12 110.25L118.37 117.844L121.464 110.25H126.511L121.027 121.516L126.62 133H121.37L118.136 125.234L114.902 133H109.761L115.449 121.422L109.886 110.25H115.12ZM141.605 119.469V123.25H132.277V119.469H141.605ZM133.574 110.25V133H128.995V110.25H133.574ZM144.917 110.25V133H140.386V110.25H144.917ZM164.636 119.859V123.656C164.636 125.26 164.438 126.667 164.042 127.875C163.657 129.073 163.105 130.078 162.386 130.891C161.678 131.693 160.818 132.297 159.808 132.703C158.808 133.109 157.699 133.312 156.48 133.312C155.261 133.312 154.146 133.109 153.136 132.703C152.136 132.297 151.271 131.693 150.542 130.891C149.824 130.078 149.266 129.073 148.87 127.875C148.475 126.667 148.277 125.26 148.277 123.656V119.859C148.277 118.214 148.469 116.776 148.855 115.547C149.24 114.307 149.798 113.276 150.527 112.453C151.256 111.62 152.12 110.995 153.12 110.578C154.12 110.151 155.23 109.938 156.449 109.938C157.667 109.938 158.777 110.151 159.777 110.578C160.777 110.995 161.641 111.62 162.37 112.453C163.1 113.276 163.657 114.307 164.042 115.547C164.438 116.776 164.636 118.214 164.636 119.859ZM160.089 123.656V119.828C160.089 118.745 160.011 117.823 159.855 117.062C159.699 116.292 159.464 115.661 159.152 115.172C158.839 114.682 158.459 114.323 158.011 114.094C157.563 113.865 157.042 113.75 156.449 113.75C155.855 113.75 155.329 113.865 154.87 114.094C154.423 114.323 154.042 114.682 153.73 115.172C153.428 115.661 153.199 116.292 153.042 117.062C152.896 117.823 152.824 118.745 152.824 119.828V123.656C152.824 124.698 152.902 125.589 153.058 126.328C153.214 127.068 153.449 127.672 153.761 128.141C154.074 128.609 154.454 128.958 154.902 129.188C155.36 129.406 155.886 129.516 156.48 129.516C157.063 129.516 157.579 129.406 158.027 129.188C158.485 128.958 158.865 128.609 159.167 128.141C159.469 127.672 159.699 127.068 159.855 126.328C160.011 125.589 160.089 124.698 160.089 123.656ZM180.074 110.25V114.047H170.745V110.25H180.074ZM183.386 110.25V133H178.839V110.25H183.386ZM170.183 110.25H174.714L174.261 121.719C174.199 123.427 174.063 124.911 173.855 126.172C173.646 127.432 173.365 128.5 173.011 129.375C172.667 130.24 172.235 130.943 171.714 131.484C171.193 132.016 170.589 132.401 169.902 132.641C169.214 132.88 168.438 133 167.574 133H166.495V129.219L167.011 129.156C167.417 129.104 167.777 128.974 168.089 128.766C168.402 128.547 168.667 128.224 168.886 127.797C169.105 127.359 169.282 126.802 169.417 126.125C169.563 125.438 169.673 124.604 169.745 123.625C169.829 122.646 169.886 121.505 169.917 120.203L170.183 110.25ZM203.105 119.859V123.656C203.105 125.26 202.907 126.667 202.511 127.875C202.126 129.073 201.574 130.078 200.855 130.891C200.146 131.693 199.287 132.297 198.277 132.703C197.277 133.109 196.167 133.312 194.949 133.312C193.73 133.312 192.615 133.109 191.605 132.703C190.605 132.297 189.74 131.693 189.011 130.891C188.292 130.078 187.735 129.073 187.339 127.875C186.943 126.667 186.745 125.26 186.745 123.656V119.859C186.745 118.214 186.938 116.776 187.324 115.547C187.709 114.307 188.266 113.276 188.995 112.453C189.725 111.62 190.589 110.995 191.589 110.578C192.589 110.151 193.699 109.938 194.917 109.938C196.136 109.938 197.245 110.151 198.245 110.578C199.245 110.995 200.11 111.62 200.839 112.453C201.568 113.276 202.126 114.307 202.511 115.547C202.907 116.776 203.105 118.214 203.105 119.859ZM198.558 123.656V119.828C198.558 118.745 198.48 117.823 198.324 117.062C198.167 116.292 197.933 115.661 197.62 115.172C197.308 114.682 196.928 114.323 196.48 114.094C196.032 113.865 195.511 113.75 194.917 113.75C194.324 113.75 193.798 113.865 193.339 114.094C192.891 114.323 192.511 114.682 192.199 115.172C191.896 115.661 191.667 116.292 191.511 117.062C191.365 117.823 191.292 118.745 191.292 119.828V123.656C191.292 124.698 191.37 125.589 191.527 126.328C191.683 127.068 191.917 127.672 192.23 128.141C192.542 128.609 192.923 128.958 193.37 129.188C193.829 129.406 194.355 129.516 194.949 129.516C195.532 129.516 196.048 129.406 196.495 129.188C196.954 128.958 197.334 128.609 197.636 128.141C197.938 127.672 198.167 127.068 198.324 126.328C198.48 125.589 198.558 124.698 198.558 123.656ZM219.23 110.25V114.047H211.042V133H206.48V110.25H219.23ZM226.37 124.641L233.48 110.25H237.824V133H233.402V118.781L226.355 133H221.933V110.25H226.37V124.641ZM241.214 110.25H245.761V117.25C245.761 118.229 245.87 118.995 246.089 119.547C246.308 120.099 246.652 120.49 247.12 120.719C247.589 120.938 248.178 121.047 248.886 121.047C249.157 121.047 249.49 121.031 249.886 121C250.282 120.958 250.693 120.906 251.12 120.844C251.548 120.781 251.949 120.708 252.324 120.625C252.699 120.531 253.006 120.432 253.245 120.328V124.109C253.016 124.214 252.709 124.312 252.324 124.406C251.949 124.49 251.548 124.568 251.12 124.641C250.704 124.703 250.292 124.75 249.886 124.781C249.49 124.802 249.157 124.812 248.886 124.812C247.334 124.812 245.98 124.552 244.824 124.031C243.678 123.5 242.787 122.677 242.152 121.562C241.527 120.438 241.214 119 241.214 117.25V110.25ZM252.339 110.25H256.886V133H252.339V110.25ZM273.699 129.219V133H263.808V129.219H273.699ZM265.23 110.25V133H260.652V110.25H265.23ZM272.37 119.469V123.141H263.808V119.469H272.37ZM273.667 110.25V114.047H263.808V110.25H273.667ZM287.214 125.422H291.761C291.699 127.13 291.355 128.573 290.73 129.75C290.105 130.917 289.214 131.802 288.058 132.406C286.912 133.01 285.527 133.312 283.902 133.312C282.641 133.312 281.521 133.104 280.542 132.688C279.563 132.26 278.73 131.635 278.042 130.812C277.355 129.99 276.834 128.974 276.48 127.766C276.136 126.547 275.964 125.146 275.964 123.562V119.703C275.964 118.12 276.146 116.719 276.511 115.5C276.886 114.281 277.417 113.26 278.105 112.438C278.803 111.604 279.641 110.979 280.62 110.562C281.61 110.135 282.725 109.922 283.964 109.922C285.62 109.922 287.006 110.234 288.12 110.859C289.235 111.484 290.094 112.396 290.699 113.594C291.313 114.781 291.683 116.234 291.808 117.953H287.245C287.214 116.87 287.089 116.021 286.87 115.406C286.662 114.781 286.329 114.344 285.87 114.094C285.412 113.833 284.777 113.703 283.964 113.703C283.36 113.703 282.839 113.812 282.402 114.031C281.964 114.24 281.605 114.578 281.324 115.047C281.042 115.516 280.834 116.13 280.699 116.891C280.574 117.651 280.511 118.578 280.511 119.672V123.562C280.511 124.635 280.568 125.552 280.683 126.312C280.798 127.062 280.98 127.677 281.23 128.156C281.48 128.635 281.818 128.984 282.245 129.203C282.683 129.422 283.235 129.531 283.902 129.531C284.673 129.531 285.292 129.417 285.761 129.188C286.24 128.958 286.594 128.547 286.824 127.953C287.053 127.359 287.183 126.516 287.214 125.422ZM299.23 110.25V133H294.652V110.25H299.23ZM310.308 110.25L303.23 123.672H298.183L297.558 119.344H300.761L304.777 110.25H310.308ZM305.511 133L300.855 122.875L303.995 119.438L310.933 133H305.511ZM316.964 124.641L324.074 110.25H328.417V133H323.995V118.781L316.949 133H312.527V110.25H316.964V124.641ZM336.37 124.641L343.48 110.25H347.824V133H343.402V118.781L336.355 133H331.933V110.25H336.37V124.641ZM342.089 104.25H345.308C345.308 105.167 345.084 105.974 344.636 106.672C344.199 107.359 343.574 107.901 342.761 108.297C341.959 108.693 341.006 108.891 339.902 108.891C338.235 108.891 336.917 108.458 335.949 107.594C334.98 106.729 334.495 105.615 334.495 104.25H337.683C337.683 104.792 337.85 105.271 338.183 105.688C338.516 106.104 339.089 106.312 339.902 106.312C340.704 106.312 341.266 106.104 341.589 105.688C341.923 105.271 342.089 104.792 342.089 104.25ZM160.855 162.703L165.23 148.25H170.136L163.886 166.547C163.636 167.182 163.36 167.792 163.058 168.375C162.766 168.948 162.417 169.458 162.011 169.906C161.605 170.354 161.115 170.703 160.542 170.953C159.969 171.203 159.287 171.328 158.495 171.328C158.308 171.328 158.068 171.323 157.777 171.312C157.495 171.302 157.266 171.292 157.089 171.281L157.011 167.484C157.115 167.505 157.287 167.521 157.527 167.531C157.766 167.542 157.933 167.547 158.027 167.547C158.516 167.547 158.886 167.464 159.136 167.297C159.396 167.12 159.594 166.87 159.73 166.547C159.876 166.224 160.001 165.844 160.105 165.406L160.855 162.703ZM158.73 148.25L162.433 159.234L163.808 164.656L160.417 164.703L153.839 148.25H158.73ZM185.199 157.469V161.25H175.87V157.469H185.199ZM177.167 148.25V171H172.589V148.25H177.167ZM188.511 148.25V171H183.98V148.25H188.511ZM196.527 162.641L203.636 148.25H207.98V171H203.558V156.781L196.511 171H192.089V148.25H196.527V162.641ZM219.324 161.078H214.667L214.652 157.766H218.62C219.245 157.766 219.756 157.661 220.152 157.453C220.558 157.234 220.855 156.917 221.042 156.5C221.24 156.073 221.339 155.557 221.339 154.953C221.339 154.255 221.251 153.698 221.074 153.281C220.896 152.854 220.61 152.542 220.214 152.344C219.818 152.146 219.303 152.047 218.667 152.047H216.23V171H211.652V148.25H218.667C219.803 148.25 220.818 148.375 221.714 148.625C222.61 148.875 223.37 149.255 223.995 149.766C224.62 150.276 225.094 150.922 225.417 151.703C225.751 152.484 225.917 153.406 225.917 154.469C225.917 155.406 225.73 156.271 225.355 157.062C224.98 157.854 224.391 158.5 223.589 159C222.798 159.5 221.761 159.781 220.48 159.844L219.324 161.078ZM219.167 171H213.37L215.199 167.219H219.167C219.771 167.219 220.261 167.089 220.636 166.828C221.011 166.568 221.282 166.219 221.449 165.781C221.615 165.333 221.699 164.823 221.699 164.25C221.699 163.604 221.62 163.042 221.464 162.562C221.318 162.083 221.074 161.719 220.73 161.469C220.386 161.208 219.923 161.078 219.339 161.078H215.402L215.433 157.766H220.214L221.292 159.078C222.511 159.036 223.485 159.271 224.214 159.781C224.943 160.281 225.464 160.938 225.777 161.75C226.1 162.552 226.261 163.406 226.261 164.312C226.261 165.771 225.985 167 225.433 168C224.891 168.99 224.094 169.74 223.042 170.25C221.99 170.75 220.699 171 219.167 171ZM242.667 167.219V171H232.777V167.219H242.667ZM234.199 148.25V171H229.62V148.25H234.199ZM241.339 157.469V161.141H232.777V157.469H241.339ZM242.636 148.25V152.047H232.777V148.25H242.636ZM253.089 162.984H248.433V159.188H253.089C253.735 159.188 254.261 159.042 254.667 158.75C255.084 158.458 255.386 158.057 255.574 157.547C255.761 157.026 255.855 156.443 255.855 155.797C255.855 155.141 255.756 154.531 255.558 153.969C255.37 153.396 255.074 152.932 254.667 152.578C254.271 152.224 253.745 152.047 253.089 152.047H249.902V171H245.339V148.25H253.089C254.62 148.25 255.938 148.573 257.042 149.219C258.146 149.865 258.99 150.755 259.574 151.891C260.167 153.016 260.464 154.307 260.464 155.766C260.464 157.234 260.167 158.51 259.574 159.594C258.99 160.667 258.146 161.5 257.042 162.094C255.938 162.688 254.62 162.984 253.089 162.984ZM274.37 163.422H278.917C278.855 165.13 278.511 166.573 277.886 167.75C277.261 168.917 276.37 169.802 275.214 170.406C274.068 171.01 272.683 171.312 271.058 171.312C269.798 171.312 268.678 171.104 267.699 170.688C266.719 170.26 265.886 169.635 265.199 168.812C264.511 167.99 263.99 166.974 263.636 165.766C263.292 164.547 263.12 163.146 263.12 161.562V157.703C263.12 156.12 263.303 154.719 263.667 153.5C264.042 152.281 264.574 151.26 265.261 150.438C265.959 149.604 266.798 148.979 267.777 148.562C268.766 148.135 269.881 147.922 271.12 147.922C272.777 147.922 274.162 148.234 275.277 148.859C276.391 149.484 277.251 150.396 277.855 151.594C278.469 152.781 278.839 154.234 278.964 155.953H274.402C274.37 154.87 274.245 154.021 274.027 153.406C273.818 152.781 273.485 152.344 273.027 152.094C272.568 151.833 271.933 151.703 271.12 151.703C270.516 151.703 269.995 151.812 269.558 152.031C269.12 152.24 268.761 152.578 268.48 153.047C268.199 153.516 267.99 154.13 267.855 154.891C267.73 155.651 267.667 156.578 267.667 157.672V161.562C267.667 162.635 267.725 163.552 267.839 164.312C267.954 165.062 268.136 165.677 268.386 166.156C268.636 166.635 268.975 166.984 269.402 167.203C269.839 167.422 270.391 167.531 271.058 167.531C271.829 167.531 272.449 167.417 272.917 167.188C273.396 166.958 273.751 166.547 273.98 165.953C274.209 165.359 274.339 164.516 274.37 163.422ZM286.058 162.641L293.167 148.25H297.511V171H293.089V156.781L286.042 171H281.62V148.25H286.058V162.641ZM309.777 148.25V171H305.23V148.25H309.777ZM315.433 148.25V152.047H299.683V148.25H315.433ZM331.136 167.219V171H321.245V167.219H331.136ZM322.667 148.25V171H318.089V148.25H322.667ZM329.808 157.469V161.141H321.245V157.469H329.808ZM331.105 148.25V152.047H321.245V148.25H331.105ZM343.183 148.25V171H338.636V148.25H343.183ZM348.839 148.25V152.047H333.089V148.25H348.839Z" fill="white"/>
</svg>
